<svg width="1178.45px" height="121.39999999999999px" xmlns="http://www.w3.org/2000/svg" viewBox="-339.225 14.300000000000004 1178.45 121.39999999999999" style="background: rgba(0, 0, 0, 0);" preserveAspectRatio="xMidYMid"><defs><linearGradient id="editing-shiny-gradient" x1="0.04322727117869957" x2="0.9567727288213004" y1="0.2966316784620999" y2="0.7033683215379001" gradientUnits="objectBoundingBox"><stop offset="0.0" stop-color="#ffb200"></stop><stop offset="0.5" stop-color="#e10057"></stop><stop offset="1.0" stop-color="#5A1A80"></stop></linearGradient><linearGradient id="editing-shiny-gradient2" x1="0" x2="0" y1="0" y2="1"><stop offset="0.2" stop-color="#fff" stop-opacity="0.8"></stop><stop offset="0.8" stop-color="#fff" stop-opacity="0"></stop></linearGradient><filter id="editing-shiny2" x="-100%" y="-100%" width="300%" height="300%"><feMorphology operator="erode" radius="2"></feMorphology></filter><filter id="editing-shiny" x="-100%" y="-100%" width="300%" height="300%"><feFlood flood-color="#fff" result="flood"></feFlood><feConvolveMatrix in="SourceGraphic" result="conv" order="8,8" divisor="1" kernelMatrix="0 0 0 0 0 0 0 0 0 0 0 1 1 0 0 0 0 0 0 1 1 0 0 0 0 0 1 0 0 1 0 0 0 0 1 0 0 1 0 0 0 1 0 0 0 0 1 0 0 1 1 0 0 1 1 0 0 0 0 1 1 0 0 0 "></feConvolveMatrix><feOffset dx="0" dy="4" in="conv" result="offset"></feOffset><feComposite operator="in" in="flood" in2="offset" result="comp"></feComposite><feGaussianBlur in="offset" stdDeviation="3" result="shadow"></feGaussianBlur><feColorMatrix in="shadow" type="matrix" values="0.7 0 0 0 0  0 0.7 0 0 0  0 0 0.7 0 0  0 0 0 0.3 0" result="dark-shadow"></feColorMatrix><feOffset dx="0" dy="4" in="dark-shadow" result="offset-shadow"></feOffset><feOffset dx="0" dy="2" in="conv" result="offset-2"></feOffset><feComposite operator="out" in="offset" in2="offset-2" result="edge-diff"></feComposite><feGaussianBlur in="edge-diff" stdDeviation="1" result="edge-blur"></feGaussianBlur><feColorMatrix in="edge-blur" result="edge-shadow" type="matrix" values="0 0 0 0 0  0 0 0 0 0  0 0 0 0 0  0 0 0 0.5 0"></feColorMatrix><feComposite operator="in" in="edge-shadow" in2="offset" result="edge-shadow-in"></feComposite><feOffset dx="0" dy="1" in="edge-shadow-in" result="edge-shadow-final"></feOffset><feMerge result="out"><feMergeNode in="offset-shadow"></feMergeNode><feMergeNode in="comp"></feMergeNode><feMergeNode in="edge-shadow-final"></feMergeNode><feMergeNode in="SourceGraphic"></feMergeNode></feMerge></filter></defs><g filter="url(#editing-shiny)"><g transform="translate(-174.83501958847046, 104.47000122070312)"><path d="M2.69-39.68L2.69-39.68L2.69-39.68Q3.58-41.47 5.54-42.46L5.54-42.46L5.54-42.46Q7.49-43.46 10.18-43.46L10.18-43.46L10.18-43.46Q14.40-43.46 16.93-40.42L16.93-40.42L16.93-40.42Q19.46-37.38 19.46-30.72L19.46-30.72L19.46-7.87L34.11-42.18L41.66-42.18L43.39-9.79L43.20-7.94L58.43-42.18L67.20-42.18L46.72 0L33.09 0L31.81-19.46L23.36 0L7.94 0L6.02-30.72L6.02-30.72Q5.82-34.18 4.90-36.45L4.90-36.45L4.90-36.45Q3.97-38.72 2.69-39.68ZM89.28-10.82L89.28-10.82L89.28-10.82Q90.88-9.73 90.88-7.33L90.88-7.33L90.88-7.33Q90.88-4.93 89.66-3.39L89.66-3.39L89.66-3.39Q88.45-1.86 86.46-0.83L86.46-0.83L86.46-0.83Q82.37 1.28 77.95 1.28L77.95 1.28L77.95 1.28Q73.54 1.28 70.94 0.32L70.94 0.32L70.94 0.32Q68.35-0.64 66.62-2.43L66.62-2.43L66.62-2.43Q63.23-5.82 63.23-12.03L63.23-12.03L63.23-12.03Q63.23-21.70 68.48-27.58L68.48-27.58L68.48-27.58Q74.11-33.92 83.90-33.92L83.90-33.92L83.90-33.92Q89.98-33.92 92.99-31.36L92.99-31.36L92.99-31.36Q95.23-29.44 95.23-26.30L95.23-26.30L95.23-26.30Q95.23-15.04 75.78-15.04L75.78-15.04L75.78-15.04Q75.52-13.38 75.52-11.97L75.52-11.97L75.52-11.97Q75.52-9.02 76.83-7.90L76.83-7.90L76.83-7.90Q78.14-6.78 80.58-6.78L80.58-6.78L80.58-6.78Q83.01-6.78 85.60-7.90L85.60-7.90L85.60-7.90Q88.19-9.02 89.28-10.82ZM76.22-17.79L76.22-17.79L76.22-17.79Q80.77-17.79 83.39-20.61L83.39-20.61L83.39-20.61Q86.02-23.30 86.02-27.58L86.02-27.58L86.02-27.58Q86.02-29.06 85.47-29.86L85.47-29.86L85.47-29.86Q84.93-30.66 83.84-30.66L83.84-30.66L83.84-30.66Q82.75-30.66 81.82-30.24L81.82-30.24L81.82-30.24Q80.90-29.82 79.94-28.42L79.94-28.42L79.94-28.42Q77.57-25.22 76.22-17.79ZM112.70-3.52L112.70-3.52L112.70-3.52Q110.72 1.28 104.38 1.28L104.38 1.28L104.38 1.28Q101.18 1.28 99.14-0.96L99.14-0.96L99.14-0.96Q97.47-2.82 97.47-4.93L97.47-4.93L97.47-4.93Q97.47-9.73 99.71-20.22L99.71-20.22L104.38-44.80L117.38-46.08L111.17-13.70L111.17-13.70Q110.08-8.96 110.08-7.30L110.08-7.30L110.08-7.30Q110.08-3.65 112.70-3.52ZM149.57-26.62L149.57-26.62L149.57-26.62Q149.57-23.94 147.33-22.27L147.33-22.27L147.33-22.27Q145.09-20.61 141.44-20.61L141.44-20.61L141.44-20.61Q139.90-20.61 139.01-21.06L139.01-21.06L139.01-21.06Q139.71-22.72 139.94-24.80L139.94-24.80L139.94-24.80Q140.16-26.88 140.16-27.46L140.16-27.46L140.16-27.46Q140.16-30.14 138.30-30.14L138.30-30.14L138.30-30.14Q137.02-30.14 135.58-28.54L135.58-28.54L135.58-28.54Q134.14-26.94 132.93-24.45L132.93-24.45L132.93-24.45Q130.24-18.69 130.24-12.86L130.24-12.86L130.24-12.86Q130.24-9.66 131.46-8.22L131.46-8.22L131.46-8.22Q132.67-6.78 135.36-6.78L135.36-6.78L135.36-6.78Q139.07-6.78 142.02-9.86L142.02-9.86L142.02-9.86Q142.85-10.82 143.30-11.90L143.30-11.90L143.30-11.90Q145.73-10.62 145.73-7.10L145.73-7.10L145.73-7.10Q145.73-3.52 141.76-1.15L141.76-1.15L141.76-1.15Q137.66 1.28 131.14 1.28L131.14 1.28L131.14 1.28Q118.14 1.28 118.14-12.48L118.14-12.48L118.14-12.48Q118.14-22.53 123.84-28.29L123.84-28.29L123.84-28.29Q129.34-33.92 139.46-33.92L139.46-33.92L139.46-33.92Q149.57-33.92 149.57-26.62ZM165.25 1.28L165.25 1.28L165.25 1.28Q151.17 1.28 151.17-11.97L151.17-11.97L151.17-11.97Q151.17-21.38 156.35-27.46L156.35-27.46L156.35-27.46Q161.86-33.92 171.39-33.92L171.39-33.92L171.39-33.92Q178.30-33.92 181.82-30.72L181.82-30.72L181.82-30.72Q185.34-27.52 185.34-20.80L185.34-20.80L185.34-20.80Q185.34-10.56 179.84-4.61L179.84-4.61L179.84-4.61Q174.46 1.28 165.25 1.28ZM166.91-26.56L166.91-26.56L166.91-26.56Q166.14-24.83 165.54-22.24L165.54-22.24L165.54-22.24Q164.93-19.65 164.16-15.55L164.16-15.55L164.16-15.55Q163.39-11.46 163.39-6.40L163.39-6.40L163.39-6.40Q163.39-4.74 163.94-3.65L163.94-3.65L163.94-3.65Q164.48-2.56 165.95-2.56L165.95-2.56L165.95-2.56Q167.42-2.56 168.35-3.26L168.35-3.26L168.35-3.26Q169.28-3.97 169.98-5.63L169.98-5.63L169.98-5.63Q171.26-8.58 172.29-14.05L172.29-14.05L172.29-14.05Q173.31-19.52 173.41-21.89L173.41-21.89L173.41-21.89Q173.50-24.26 173.50-26.02L173.50-26.02L173.50-26.02Q173.50-27.78 172.99-28.93L172.99-28.93L172.99-28.93Q172.48-30.08 171.04-30.08L171.04-30.08L171.04-30.08Q169.60-30.08 168.64-29.18L168.64-29.18L168.64-29.18Q167.68-28.29 166.91-26.56ZM235.20 1.28L235.20 1.28L235.20 1.28Q227.46 1.28 227.46-4.74L227.46-4.74L227.46-4.74Q227.46-7.36 228.58-12.45L228.58-12.45L228.58-12.45Q229.70-17.54 230.08-19.58L230.08-19.58L230.08-19.58Q230.98-24.26 230.98-25.73L230.98-25.73L230.98-25.73Q230.98-28.99 228.54-28.99L228.54-28.99L228.54-28.99Q226.94-28.99 225.41-26.78L225.41-26.78L225.41-26.78Q223.87-24.58 223.17-20.16L223.17-20.16L219.20 0L206.72 1.28L210.18-16.13L210.18-16.13Q210.75-19.01 211.26-22.27L211.26-22.27L211.26-22.27Q211.78-25.54 211.78-26.05L211.78-26.05L211.78-26.05Q211.78-28.99 209.60-28.99L209.60-28.99L209.60-28.99Q208.13-28.99 206.53-26.82L206.53-26.82L206.53-26.82Q204.93-24.64 204.03-20.16L204.03-20.16L200.13 0L187.52 1.28L194.24-32.64L204.67-33.92L203.58-27.46L203.58-27.46Q205.25-30.91 208.32-32.42L208.32-32.42L208.32-32.42Q211.39-33.92 216.19-33.92L216.19-33.92L216.19-33.92Q218.94-33.92 220.74-32.58L220.74-32.58L220.74-32.58Q222.53-31.23 223.10-29.06L223.10-29.06L223.10-29.06Q224.19-31.30 226.98-32.61L226.98-32.61L226.98-32.61Q229.76-33.92 233.18-33.92L233.18-33.92L233.18-33.92Q236.61-33.92 238.30-33.18L238.30-33.18L238.30-33.18Q240-32.45 241.02-31.23L241.02-31.23L241.02-31.23Q242.75-28.99 242.75-24.90L242.75-24.90L242.75-24.90Q242.75-20.86 241.02-12.48L241.02-12.48L241.02-12.48Q240.13-8.38 240.13-6.88L240.13-6.88L240.13-6.88Q240.13-5.38 240.99-4.48L240.99-4.48L240.99-4.48Q241.86-3.58 243.14-3.46L243.14-3.46L243.14-3.46Q242.50-1.28 240.29 0L240.29 0L240.29 0Q238.08 1.28 235.20 1.28ZM273.98-10.82L273.98-10.82L273.98-10.82Q275.58-9.73 275.58-7.33L275.58-7.33L275.58-7.33Q275.58-4.93 274.37-3.39L274.37-3.39L274.37-3.39Q273.15-1.86 271.17-0.83L271.17-0.83L271.17-0.83Q267.07 1.28 262.66 1.28L262.66 1.28L262.66 1.28Q258.24 1.28 255.65 0.32L255.65 0.32L255.65 0.32Q253.06-0.64 251.33-2.43L251.33-2.43L251.33-2.43Q247.94-5.82 247.94-12.03L247.94-12.03L247.94-12.03Q247.94-21.70 253.18-27.58L253.18-27.58L253.18-27.58Q258.82-33.92 268.61-33.92L268.61-33.92L268.61-33.92Q274.69-33.92 277.70-31.36L277.70-31.36L277.70-31.36Q279.94-29.44 279.94-26.30L279.94-26.30L279.94-26.30Q279.94-15.04 260.48-15.04L260.48-15.04L260.48-15.04Q260.22-13.38 260.22-11.97L260.22-11.97L260.22-11.97Q260.22-9.02 261.54-7.90L261.54-7.90L261.54-7.90Q262.85-6.78 265.28-6.78L265.28-6.78L265.28-6.78Q267.71-6.78 270.30-7.90L270.30-7.90L270.30-7.90Q272.90-9.02 273.98-10.82ZM260.93-17.79L260.93-17.79L260.93-17.79Q265.47-17.79 268.10-20.61L268.10-20.61L268.10-20.61Q270.72-23.30 270.72-27.58L270.72-27.58L270.72-27.58Q270.72-29.06 270.18-29.86L270.18-29.86L270.18-29.86Q269.63-30.66 268.54-30.66L268.54-30.66L268.54-30.66Q267.46-30.66 266.53-30.24L266.53-30.24L266.53-30.24Q265.60-29.82 264.64-28.42L264.64-28.42L264.64-28.42Q262.27-25.22 260.93-17.79ZM276.48 8.26L276.48 8.26L276.48 8.26Q281.41 2.94 281.41-3.71L281.41-3.71L281.41-3.71Q281.41-5.76 280.70-7.68L280.70-7.68L280.70-7.68Q281.47-8.19 283.01-8.54L283.01-8.54L283.01-8.54Q284.54-8.90 285.70-8.90L285.70-8.90L285.70-8.90Q288.51-8.90 290.18-7.39L290.18-7.39L290.18-7.39Q291.84-5.89 291.84-3.26L291.84-3.26L291.84-3.26Q291.84-0.64 290.82 1.47L290.82 1.47L290.82 1.47Q289.79 3.58 288.06 5.18L288.06 5.18L288.06 5.18Q284.35 8.64 279.23 8.64L279.23 8.64L279.23 8.64Q278.21 8.64 276.48 8.26ZM312.64-39.68L312.64-39.68L312.64-39.68Q313.54-41.47 315.49-42.46L315.49-42.46L315.49-42.46Q317.44-43.46 320.13-43.46L320.13-43.46L320.13-43.46Q324.35-43.46 326.88-40.42L326.88-40.42L326.88-40.42Q329.41-37.38 329.41-30.72L329.41-30.72L329.41-7.87L344.06-42.18L351.62-42.18L353.34-9.79L353.15-7.94L368.38-42.18L377.15-42.18L356.67 0L343.04 0L341.76-19.46L333.31 0L317.89 0L315.97-30.72L315.97-30.72Q315.78-34.18 314.85-36.45L314.85-36.45L314.85-36.45Q313.92-38.72 312.64-39.68ZM399.23-10.82L399.23-10.82L399.23-10.82Q400.83-9.73 400.83-7.33L400.83-7.33L400.83-7.33Q400.83-4.93 399.62-3.39L399.62-3.39L399.62-3.39Q398.40-1.86 396.42-0.83L396.42-0.83L396.42-0.83Q392.32 1.28 387.90 1.28L387.90 1.28L387.90 1.28Q383.49 1.28 380.90 0.32L380.90 0.32L380.90 0.32Q378.30-0.64 376.58-2.43L376.58-2.43L376.58-2.43Q373.18-5.82 373.18-12.03L373.18-12.03L373.18-12.03Q373.18-21.70 378.43-27.58L378.43-27.58L378.43-27.58Q384.06-33.92 393.86-33.92L393.86-33.92L393.86-33.92Q399.94-33.92 402.94-31.36L402.94-31.36L402.94-31.36Q405.18-29.44 405.18-26.30L405.18-26.30L405.18-26.30Q405.18-15.04 385.73-15.04L385.73-15.04L385.73-15.04Q385.47-13.38 385.47-11.97L385.47-11.97L385.47-11.97Q385.47-9.02 386.78-7.90L386.78-7.90L386.78-7.90Q388.10-6.78 390.53-6.78L390.53-6.78L390.53-6.78Q392.96-6.78 395.55-7.90L395.55-7.90L395.55-7.90Q398.14-9.02 399.23-10.82ZM386.18-17.79L386.18-17.79L386.18-17.79Q390.72-17.79 393.34-20.61L393.34-20.61L393.34-20.61Q395.97-23.30 395.97-27.58L395.97-27.58L395.97-27.58Q395.97-29.06 395.42-29.86L395.42-29.86L395.42-29.86Q394.88-30.66 393.79-30.66L393.79-30.66L393.79-30.66Q392.70-30.66 391.78-30.24L391.78-30.24L391.78-30.24Q390.85-29.82 389.89-28.42L389.89-28.42L389.89-28.42Q387.52-25.22 386.18-17.79ZM410.14-1.92L410.14-1.92L410.14-1.92Q408.64-3.58 407.97-6.21L407.97-6.21L407.97-6.21Q407.30-8.83 407.30-13.12L407.30-13.12L407.30-13.12Q407.30-17.41 408.77-21.31L408.77-21.31L408.77-21.31Q410.24-25.22 412.93-28.03L412.93-28.03L412.93-28.03Q418.43-33.92 427.52-33.92L427.52-33.92L427.52-33.92Q430.78-33.92 433.15-32.83L433.15-32.83L444.10-33.92L439.36-8.96L439.36-8.96Q439.17-8.19 439.17-6.78L439.17-6.78L439.17-6.78Q439.17-5.38 440.03-4.48L440.03-4.48L440.03-4.48Q440.90-3.58 442.18-3.46L442.18-3.46L442.18-3.46Q441.54-1.28 439.20 0L439.20 0L439.20 0Q436.86 1.28 434.24 1.28L434.24 1.28L434.24 1.28Q431.62 1.28 429.86 0.29L429.86 0.29L429.86 0.29Q428.10-0.70 427.58-2.37L427.58-2.37L427.58-2.37Q426.56-0.77 424.38 0.26L424.38 0.26L424.38 0.26Q422.21 1.28 419.30 1.28L419.30 1.28L419.30 1.28Q416.38 1.28 414.02 0.51L414.02 0.51L414.02 0.51Q411.65-0.26 410.14-1.92ZM423.65-27.90L423.65-27.90L423.65-27.90Q422.91-26.75 422.27-24.80L422.27-24.80L422.27-24.80Q421.63-22.85 420.58-17.63L420.58-17.63L420.58-17.63Q419.52-12.42 419.52-8.70L419.52-8.70L419.52-8.70Q419.52-4.99 420.10-3.90L420.10-3.90L420.10-3.90Q420.67-2.82 421.70-2.82L421.70-2.82L421.70-2.82Q423.74-2.82 425.25-4.77L425.25-4.77L425.25-4.77Q426.75-6.72 427.33-10.18L427.33-10.18L430.72-28.93L430.72-28.93Q429.38-30.08 427.81-30.08L427.81-30.08L427.81-30.08Q426.24-30.08 425.31-29.57L425.31-29.57L425.31-29.57Q424.38-29.06 423.65-27.90ZM467.58-17.98L467.58-17.98L467.58-17.98Q469.89-22.08 469.89-26.24L469.89-26.24L469.89-26.24Q469.89-28.99 467.90-28.99L467.90-28.99L467.90-28.99Q466.37-28.99 464.77-26.37L464.77-26.37L464.77-26.37Q463.10-23.74 462.59-20.35L462.59-20.35L459.26 0L446.02 1.28L452.54-32.64L463.10-33.92L461.95-27.46L461.95-27.46Q465.09-33.92 472.13-33.92L472.13-33.92L472.13-33.92Q475.84-33.92 477.86-32L477.86-32L477.86-32Q479.87-30.08 479.87-26.14L479.87-26.14L479.87-26.14Q479.87-22.21 477.28-19.71L477.28-19.71L477.28-19.71Q474.69-17.22 470.27-17.22L470.27-17.22L470.27-17.22Q468.35-17.22 467.58-17.98ZM501.25-7.23L501.25-7.23L501.25-7.23Q497.92-3.78 491.84-3.78L491.84-3.78L491.84-3.78Q484.22-3.78 482.62-9.34L482.62-9.34L482.62-9.34Q482.11-11.01 482.11-12.86L482.11-12.86L482.11-12.86Q482.11-14.72 482.50-16.64L482.50-16.64L485.50-32.64L498.50-33.92L494.98-15.30L494.98-15.30Q494.85-14.46 494.66-13.57L494.66-13.57L494.66-13.57Q494.46-12.67 494.46-11.74L494.46-11.74L494.46-11.74Q494.46-10.82 494.78-10.21L494.78-10.21L494.78-10.21Q495.10-9.60 495.55-9.22L495.55-9.22L495.55-9.22Q496.32-8.70 497.70-8.70L497.70-8.70L497.70-8.70Q499.07-8.70 500.26-10.37L500.26-10.37L500.26-10.37Q501.44-12.03 502.02-14.91L502.02-14.91L505.54-32.64L518.14-33.92L513.34-8.77L513.34-8.77Q510.98 3.52 506.11 8.38L506.11 8.38L506.11 8.38Q503.62 10.88 500.38 11.87L500.38 11.87L500.38 11.87Q497.15 12.86 492.99 12.86L492.99 12.86L492.99 12.86Q486.27 12.86 482.43 10.75L482.43 10.75L482.43 10.75Q478.59 8.64 478.59 5.12L478.59 5.12L478.59 5.12Q478.59 2.50 480.58 0.99L480.58 0.99L480.58 0.99Q482.56-0.51 485.63-0.51L485.63-0.51L485.63-0.51Q488.32-0.51 490.37 0.64L490.37 0.64L490.37 0.64Q491.58 1.34 492.16 2.24L492.16 2.24L492.16 2.24Q490.69 3.52 490.69 5.63L490.69 5.63L490.69 5.63Q490.69 8.45 493.25 8.45L493.25 8.45L493.25 8.45Q497.47 8.45 499.90-1.28L499.90-1.28L499.90-1.28Q500.61-4.16 501.25-7.23ZM535.23-39.68L535.23-39.68L535.23-39.68Q536.13-41.47 538.08-42.46L538.08-42.46L538.08-42.46Q540.03-43.46 542.72-43.46L542.72-43.46L542.72-43.46Q546.94-43.46 549.47-40.42L549.47-40.42L549.47-40.42Q552-37.38 552-30.72L552-30.72L552-7.87L566.66-42.18L574.21-42.18L575.94-9.79L575.74-7.94L590.98-42.18L599.74-42.18L579.26 0L565.63 0L564.35-19.46L555.90 0L540.48 0L538.56-30.72L538.56-30.72Q538.37-34.18 537.44-36.45L537.44-36.45L537.44-36.45Q536.51-38.72 535.23-39.68ZM598.69-1.92L598.69-1.92L598.69-1.92Q597.18-3.58 596.51-6.21L596.51-6.21L596.51-6.21Q595.84-8.83 595.84-13.12L595.84-13.12L595.84-13.12Q595.84-17.41 597.31-21.31L597.31-21.31L597.31-21.31Q598.78-25.22 601.47-28.03L601.47-28.03L601.47-28.03Q606.98-33.92 616.06-33.92L616.06-33.92L616.06-33.92Q619.33-33.92 621.70-32.83L621.70-32.83L632.64-33.92L627.90-8.96L627.90-8.96Q627.71-8.19 627.71-6.78L627.71-6.78L627.71-6.78Q627.71-5.38 628.58-4.48L628.58-4.48L628.58-4.48Q629.44-3.58 630.72-3.46L630.72-3.46L630.72-3.46Q630.08-1.28 627.74 0L627.74 0L627.74 0Q625.41 1.28 622.78 1.28L622.78 1.28L622.78 1.28Q620.16 1.28 618.40 0.29L618.40 0.29L618.40 0.29Q616.64-0.70 616.13-2.37L616.13-2.37L616.13-2.37Q615.10-0.77 612.93 0.26L612.93 0.26L612.93 0.26Q610.75 1.28 607.84 1.28L607.84 1.28L607.84 1.28Q604.93 1.28 602.56 0.51L602.56 0.51L602.56 0.51Q600.19-0.26 598.69-1.92ZM612.19-27.90L612.19-27.90L612.19-27.90Q611.46-26.75 610.82-24.80L610.82-24.80L610.82-24.80Q610.18-22.85 609.12-17.63L609.12-17.63L609.12-17.63Q608.06-12.42 608.06-8.70L608.06-8.70L608.06-8.70Q608.06-4.99 608.64-3.90L608.64-3.90L608.64-3.90Q609.22-2.82 610.24-2.82L610.24-2.82L610.24-2.82Q612.29-2.82 613.79-4.77L613.79-4.77L613.79-4.77Q615.30-6.72 615.87-10.18L615.87-10.18L619.26-28.93L619.26-28.93Q617.92-30.08 616.35-30.08L616.35-30.08L616.35-30.08Q614.78-30.08 613.86-29.57L613.86-29.57L613.86-29.57Q612.93-29.06 612.19-27.90ZM656.45-7.23L656.45-7.23L656.45-7.23Q653.12-3.78 647.04-3.78L647.04-3.78L647.04-3.78Q639.42-3.78 637.82-9.34L637.82-9.34L637.82-9.34Q637.31-11.01 637.31-12.86L637.31-12.86L637.31-12.86Q637.31-14.72 637.70-16.64L637.70-16.64L640.70-32.64L653.70-33.92L650.18-15.30L650.18-15.30Q650.05-14.46 649.86-13.57L649.86-13.57L649.86-13.57Q649.66-12.67 649.66-11.74L649.66-11.74L649.66-11.74Q649.66-10.82 649.98-10.21L649.98-10.21L649.98-10.21Q650.30-9.60 650.75-9.22L650.75-9.22L650.75-9.22Q651.52-8.70 652.90-8.70L652.90-8.70L652.90-8.70Q654.27-8.70 655.46-10.37L655.46-10.37L655.46-10.37Q656.64-12.03 657.22-14.91L657.22-14.91L660.74-32.64L673.34-33.92L668.54-8.77L668.54-8.77Q666.18 3.52 661.31 8.38L661.31 8.38L661.31 8.38Q658.82 10.88 655.58 11.87L655.58 11.87L655.58 11.87Q652.35 12.86 648.19 12.86L648.19 12.86L648.19 12.86Q641.47 12.86 637.63 10.75L637.63 10.75L637.63 10.75Q633.79 8.64 633.79 5.12L633.79 5.12L633.79 5.12Q633.79 2.50 635.78 0.99L635.78 0.99L635.78 0.99Q637.76-0.51 640.83-0.51L640.83-0.51L640.83-0.51Q643.52-0.51 645.57 0.64L645.57 0.64L645.57 0.64Q646.78 1.34 647.36 2.24L647.36 2.24L647.36 2.24Q645.89 3.52 645.89 5.63L645.89 5.63L645.89 5.63Q645.89 8.45 648.45 8.45L648.45 8.45L648.45 8.45Q652.67 8.45 655.10-1.28L655.10-1.28L655.10-1.28Q655.81-4.16 656.45-7.23ZM700.61-37.12L700.61-37.12L700.61-37.12Q701.50-38.66 701.50-40.32L701.50-40.32L701.50-40.32Q701.50-43.26 699.71-43.26L699.71-43.26L699.71-43.26Q696.96-43.26 695.81-37.63L695.81-37.63L694.85-32.64L700.67-32.64L700.29-29.76L694.27-29.76L688.51 0L675.58 1.28L681.73-29.76L677.18-29.76L677.76-32.64L682.24-32.64L683.58-37.70L683.58-37.70Q684.74-42.37 689.66-44.54L689.66-44.54L689.66-44.54Q693.25-46.08 699.26-46.08L699.26-46.08L699.26-46.08Q705.28-46.08 707.97-44.54L707.97-44.54L707.97-44.54Q710.66-43.01 710.66-40.96L710.66-40.96L710.66-40.96Q710.66-38.91 709.06-37.63L709.06-37.63L709.06-37.63Q707.46-36.35 705.66-36.35L705.66-36.35L705.66-36.35Q702.14-36.35 700.61-37.12ZM702.37-1.92L702.37-1.92L702.37-1.92Q700.86-3.58 700.19-6.21L700.19-6.21L700.19-6.21Q699.52-8.83 699.52-13.12L699.52-13.12L699.52-13.12Q699.52-17.41 700.99-21.31L700.99-21.31L700.99-21.31Q702.46-25.22 705.15-28.03L705.15-28.03L705.15-28.03Q710.66-33.92 719.74-33.92L719.74-33.92L719.74-33.92Q723.01-33.92 725.38-32.83L725.38-32.83L736.32-33.92L731.58-8.96L731.58-8.96Q731.39-8.19 731.39-6.78L731.39-6.78L731.39-6.78Q731.39-5.38 732.26-4.48L732.26-4.48L732.26-4.48Q733.12-3.58 734.40-3.46L734.40-3.46L734.40-3.46Q733.76-1.28 731.42 0L731.42 0L731.42 0Q729.09 1.28 726.46 1.28L726.46 1.28L726.46 1.28Q723.84 1.28 722.08 0.29L722.08 0.29L722.08 0.29Q720.32-0.70 719.81-2.37L719.81-2.37L719.81-2.37Q718.78-0.77 716.61 0.26L716.61 0.26L716.61 0.26Q714.43 1.28 711.52 1.28L711.52 1.28L711.52 1.28Q708.61 1.28 706.24 0.51L706.24 0.51L706.24 0.51Q703.87-0.26 702.37-1.92ZM715.87-27.90L715.87-27.90L715.87-27.90Q715.14-26.75 714.50-24.80L714.50-24.80L714.50-24.80Q713.86-22.85 712.80-17.63L712.80-17.63L712.80-17.63Q711.74-12.42 711.74-8.70L711.74-8.70L711.74-8.70Q711.74-4.99 712.32-3.90L712.32-3.90L712.32-3.90Q712.90-2.82 713.92-2.82L713.92-2.82L713.92-2.82Q715.97-2.82 717.47-4.77L717.47-4.77L717.47-4.77Q718.98-6.72 719.55-10.18L719.55-10.18L722.94-28.93L722.94-28.93Q721.60-30.08 720.03-30.08L720.03-30.08L720.03-30.08Q718.46-30.08 717.54-29.57L717.54-29.57L717.54-29.57Q716.61-29.06 715.87-27.90ZM759.81-17.98L759.81-17.98L759.81-17.98Q762.11-22.08 762.11-26.24L762.11-26.24L762.11-26.24Q762.11-28.99 760.13-28.99L760.13-28.99L760.13-28.99Q758.59-28.99 756.99-26.37L756.99-26.37L756.99-26.37Q755.33-23.74 754.82-20.35L754.82-20.35L751.49 0L738.24 1.28L744.77-32.64L755.33-33.92L754.18-27.46L754.18-27.46Q757.31-33.92 764.35-33.92L764.35-33.92L764.35-33.92Q768.06-33.92 770.08-32L770.08-32L770.08-32Q772.10-30.08 772.10-26.14L772.10-26.14L772.10-26.14Q772.10-22.21 769.50-19.71L769.50-19.71L769.50-19.71Q766.91-17.22 762.50-17.22L762.50-17.22L762.50-17.22Q760.58-17.22 759.81-17.98ZM799.04-10.82L799.04-10.82L799.04-10.82Q800.64-9.73 800.64-7.33L800.64-7.33L800.64-7.33Q800.64-4.93 799.42-3.39L799.42-3.39L799.42-3.39Q798.21-1.86 796.22-0.83L796.22-0.83L796.22-0.83Q792.13 1.28 787.71 1.28L787.71 1.28L787.71 1.28Q783.30 1.28 780.70 0.32L780.70 0.32L780.70 0.32Q778.11-0.64 776.38-2.43L776.38-2.43L776.38-2.43Q772.99-5.82 772.99-12.03L772.99-12.03L772.99-12.03Q772.99-21.70 778.24-27.58L778.24-27.58L778.24-27.58Q783.87-33.92 793.66-33.92L793.66-33.92L793.66-33.92Q799.74-33.92 802.75-31.36L802.75-31.36L802.75-31.36Q804.99-29.44 804.99-26.30L804.99-26.30L804.99-26.30Q804.99-15.04 785.54-15.04L785.54-15.04L785.54-15.04Q785.28-13.38 785.28-11.97L785.28-11.97L785.28-11.97Q785.28-9.02 786.59-7.90L786.59-7.90L786.59-7.90Q787.90-6.78 790.34-6.78L790.34-6.78L790.34-6.78Q792.77-6.78 795.36-7.90L795.36-7.90L795.36-7.90Q797.95-9.02 799.04-10.82ZM785.98-17.79L785.98-17.79L785.98-17.79Q790.53-17.79 793.15-20.61L793.15-20.61L793.15-20.61Q795.78-23.30 795.78-27.58L795.78-27.58L795.78-27.58Q795.78-29.06 795.23-29.86L795.23-29.86L795.23-29.86Q794.69-30.66 793.60-30.66L793.60-30.66L793.60-30.66Q792.51-30.66 791.58-30.24L791.58-30.24L791.58-30.24Q790.66-29.82 789.70-28.42L789.70-28.42L789.70-28.42Q787.33-25.22 785.98-17.79ZM827.20-17.98L827.20-17.98L827.20-17.98Q829.50-22.08 829.50-26.24L829.50-26.24L829.50-26.24Q829.50-28.99 827.52-28.99L827.52-28.99L827.52-28.99Q825.98-28.99 824.38-26.37L824.38-26.37L824.38-26.37Q822.72-23.74 822.21-20.35L822.21-20.35L818.88 0L805.63 1.28L812.16-32.64L822.72-33.92L821.57-27.46L821.57-27.46Q824.70-33.92 831.74-33.92L831.74-33.92L831.74-33.92Q835.46-33.92 837.47-32L837.47-32L837.47-32Q839.49-30.08 839.49-26.14L839.49-26.14L839.49-26.14Q839.49-22.21 836.90-19.71L836.90-19.71L836.90-19.71Q834.30-17.22 829.89-17.22L829.89-17.22L829.89-17.22Q827.97-17.22 827.20-17.98ZM834.56-3.78L834.56-3.78L834.56-3.78Q834.56-6.21 836.45-7.55L836.45-7.55L836.45-7.55Q838.34-8.90 841.02-8.90L841.02-8.90L841.02-8.90Q843.71-8.90 845.34-7.55L845.34-7.55L845.34-7.55Q846.98-6.21 846.98-3.78L846.98-3.78L846.98-3.78Q846.98-1.34 845.15-0.03L845.15-0.03L845.15-0.03Q843.33 1.28 840.64 1.28L840.64 1.28L840.64 1.28Q837.95 1.28 836.26-0.03L836.26-0.03L836.26-0.03Q834.56-1.34 834.56-3.78Z" fill="url(#editing-shiny-gradient)"></path></g></g><g filter="url(#editing-shiny2)"><g transform="translate(-174.83503484725952, 104.46999740600586)"><path d="M2.69-39.68L2.69-39.68L2.69-39.68Q3.58-41.47 5.54-42.46L5.54-42.46L5.54-42.46Q7.49-43.46 10.18-43.46L10.18-43.46L10.18-43.46Q14.40-43.46 16.93-40.42L16.93-40.42L16.93-40.42Q19.46-37.38 19.46-30.72L19.46-30.72L19.46-7.87L34.11-42.18L41.66-42.18L43.39-9.79L43.20-7.94L58.43-42.18L67.20-42.18L46.72 0L33.09 0L31.81-19.46L23.36 0L7.94 0L6.02-30.72L6.02-30.72Q5.82-34.18 4.90-36.45L4.90-36.45L4.90-36.45Q3.97-38.72 2.69-39.68ZM89.28-10.82L89.28-10.82L89.28-10.82Q90.88-9.73 90.88-7.33L90.88-7.33L90.88-7.33Q90.88-4.93 89.66-3.39L89.66-3.39L89.66-3.39Q88.45-1.86 86.46-0.83L86.46-0.83L86.46-0.83Q82.37 1.28 77.95 1.28L77.95 1.28L77.95 1.28Q73.54 1.28 70.94 0.32L70.94 0.32L70.94 0.32Q68.35-0.64 66.62-2.43L66.62-2.43L66.62-2.43Q63.23-5.82 63.23-12.03L63.23-12.03L63.23-12.03Q63.23-21.70 68.48-27.58L68.48-27.58L68.48-27.58Q74.11-33.92 83.90-33.92L83.90-33.92L83.90-33.92Q89.98-33.92 92.99-31.36L92.99-31.36L92.99-31.36Q95.23-29.44 95.23-26.30L95.23-26.30L95.23-26.30Q95.23-15.04 75.78-15.04L75.78-15.04L75.78-15.04Q75.52-13.38 75.52-11.97L75.52-11.97L75.52-11.97Q75.52-9.02 76.83-7.90L76.83-7.90L76.83-7.90Q78.14-6.78 80.58-6.78L80.58-6.78L80.58-6.78Q83.01-6.78 85.60-7.90L85.60-7.90L85.60-7.90Q88.19-9.02 89.28-10.82ZM76.22-17.79L76.22-17.79L76.22-17.79Q80.77-17.79 83.39-20.61L83.39-20.61L83.39-20.61Q86.02-23.30 86.02-27.58L86.02-27.58L86.02-27.58Q86.02-29.06 85.47-29.86L85.47-29.86L85.47-29.86Q84.93-30.66 83.84-30.66L83.84-30.66L83.84-30.66Q82.75-30.66 81.82-30.24L81.82-30.24L81.82-30.24Q80.90-29.82 79.94-28.42L79.94-28.42L79.94-28.42Q77.57-25.22 76.22-17.79ZM112.70-3.52L112.70-3.52L112.70-3.52Q110.72 1.28 104.38 1.28L104.38 1.28L104.38 1.28Q101.18 1.28 99.14-0.96L99.14-0.96L99.14-0.96Q97.47-2.82 97.47-4.93L97.47-4.93L97.47-4.93Q97.47-9.73 99.71-20.22L99.71-20.22L104.38-44.80L117.38-46.08L111.17-13.70L111.17-13.70Q110.08-8.96 110.08-7.30L110.08-7.30L110.08-7.30Q110.08-3.65 112.70-3.52ZM149.57-26.62L149.57-26.62L149.57-26.62Q149.57-23.94 147.33-22.27L147.33-22.27L147.33-22.27Q145.09-20.61 141.44-20.61L141.44-20.61L141.44-20.61Q139.90-20.61 139.01-21.06L139.01-21.06L139.01-21.06Q139.71-22.72 139.94-24.80L139.94-24.80L139.94-24.80Q140.16-26.88 140.16-27.46L140.16-27.46L140.16-27.46Q140.16-30.14 138.30-30.14L138.30-30.14L138.30-30.14Q137.02-30.14 135.58-28.54L135.58-28.54L135.58-28.54Q134.14-26.94 132.93-24.45L132.93-24.45L132.93-24.45Q130.24-18.69 130.24-12.86L130.24-12.86L130.24-12.86Q130.24-9.66 131.46-8.22L131.46-8.22L131.46-8.22Q132.67-6.78 135.36-6.78L135.36-6.78L135.36-6.78Q139.07-6.78 142.02-9.86L142.02-9.86L142.02-9.86Q142.85-10.82 143.30-11.90L143.30-11.90L143.30-11.90Q145.73-10.62 145.73-7.10L145.73-7.10L145.73-7.10Q145.73-3.52 141.76-1.15L141.76-1.15L141.76-1.15Q137.66 1.28 131.14 1.28L131.14 1.28L131.14 1.28Q118.14 1.28 118.14-12.48L118.14-12.48L118.14-12.48Q118.14-22.53 123.84-28.29L123.84-28.29L123.84-28.29Q129.34-33.92 139.46-33.92L139.46-33.92L139.46-33.92Q149.57-33.92 149.57-26.62ZM165.25 1.28L165.25 1.28L165.25 1.28Q151.17 1.28 151.17-11.97L151.17-11.97L151.17-11.97Q151.17-21.38 156.35-27.46L156.35-27.46L156.35-27.46Q161.86-33.92 171.39-33.92L171.39-33.92L171.39-33.92Q178.30-33.92 181.82-30.72L181.82-30.72L181.82-30.72Q185.34-27.52 185.34-20.80L185.34-20.80L185.34-20.80Q185.34-10.56 179.84-4.61L179.84-4.61L179.84-4.61Q174.46 1.28 165.25 1.28ZM166.91-26.56L166.91-26.56L166.91-26.56Q166.14-24.83 165.54-22.24L165.54-22.24L165.54-22.24Q164.93-19.65 164.16-15.55L164.16-15.55L164.16-15.55Q163.39-11.46 163.39-6.40L163.39-6.40L163.39-6.40Q163.39-4.74 163.94-3.65L163.94-3.65L163.94-3.65Q164.48-2.56 165.95-2.56L165.95-2.56L165.95-2.56Q167.42-2.56 168.35-3.26L168.35-3.26L168.35-3.26Q169.28-3.97 169.98-5.63L169.98-5.63L169.98-5.63Q171.26-8.58 172.29-14.05L172.29-14.05L172.29-14.05Q173.31-19.52 173.41-21.89L173.41-21.89L173.41-21.89Q173.50-24.26 173.50-26.02L173.50-26.02L173.50-26.02Q173.50-27.78 172.99-28.93L172.99-28.93L172.99-28.93Q172.48-30.08 171.04-30.08L171.04-30.08L171.04-30.08Q169.60-30.08 168.64-29.18L168.64-29.18L168.64-29.18Q167.68-28.29 166.91-26.56ZM235.20 1.28L235.20 1.28L235.20 1.28Q227.46 1.28 227.46-4.74L227.46-4.74L227.46-4.74Q227.46-7.36 228.58-12.45L228.58-12.45L228.58-12.45Q229.70-17.54 230.08-19.58L230.08-19.58L230.08-19.58Q230.98-24.26 230.98-25.73L230.98-25.73L230.98-25.73Q230.98-28.99 228.54-28.99L228.54-28.99L228.54-28.99Q226.94-28.99 225.41-26.78L225.41-26.78L225.41-26.78Q223.87-24.58 223.17-20.16L223.17-20.16L219.20 0L206.72 1.28L210.18-16.13L210.18-16.13Q210.75-19.01 211.26-22.27L211.26-22.27L211.26-22.27Q211.78-25.54 211.78-26.05L211.78-26.05L211.78-26.05Q211.78-28.99 209.60-28.99L209.60-28.99L209.60-28.99Q208.13-28.99 206.53-26.82L206.53-26.82L206.53-26.82Q204.93-24.64 204.03-20.16L204.03-20.16L200.13 0L187.52 1.28L194.24-32.64L204.67-33.92L203.58-27.46L203.58-27.46Q205.25-30.91 208.32-32.42L208.32-32.42L208.32-32.42Q211.39-33.92 216.19-33.92L216.19-33.92L216.19-33.92Q218.94-33.92 220.74-32.58L220.74-32.58L220.74-32.58Q222.53-31.23 223.10-29.06L223.10-29.06L223.10-29.06Q224.19-31.30 226.98-32.61L226.98-32.61L226.98-32.61Q229.76-33.92 233.18-33.92L233.18-33.92L233.18-33.92Q236.61-33.92 238.30-33.18L238.30-33.18L238.30-33.18Q240-32.45 241.02-31.23L241.02-31.23L241.02-31.23Q242.75-28.99 242.75-24.90L242.75-24.90L242.75-24.90Q242.75-20.86 241.02-12.48L241.02-12.48L241.02-12.48Q240.13-8.38 240.13-6.88L240.13-6.88L240.13-6.88Q240.13-5.38 240.99-4.48L240.99-4.48L240.99-4.48Q241.86-3.58 243.14-3.46L243.14-3.46L243.14-3.46Q242.50-1.28 240.29 0L240.29 0L240.29 0Q238.08 1.28 235.20 1.28ZM273.98-10.82L273.98-10.82L273.98-10.82Q275.58-9.73 275.58-7.33L275.58-7.33L275.58-7.33Q275.58-4.93 274.37-3.39L274.37-3.39L274.37-3.39Q273.15-1.86 271.17-0.83L271.17-0.83L271.17-0.83Q267.07 1.28 262.66 1.28L262.66 1.28L262.66 1.28Q258.24 1.28 255.65 0.32L255.65 0.32L255.65 0.32Q253.06-0.64 251.33-2.43L251.33-2.43L251.33-2.43Q247.94-5.82 247.94-12.03L247.94-12.03L247.94-12.03Q247.94-21.70 253.18-27.58L253.18-27.58L253.18-27.58Q258.82-33.92 268.61-33.92L268.61-33.92L268.61-33.92Q274.69-33.92 277.70-31.36L277.70-31.36L277.70-31.36Q279.94-29.44 279.94-26.30L279.94-26.30L279.94-26.30Q279.94-15.04 260.48-15.04L260.48-15.04L260.48-15.04Q260.22-13.38 260.22-11.97L260.22-11.97L260.22-11.97Q260.22-9.02 261.54-7.90L261.54-7.90L261.54-7.90Q262.85-6.78 265.28-6.78L265.28-6.78L265.28-6.78Q267.71-6.78 270.30-7.90L270.30-7.90L270.30-7.90Q272.90-9.02 273.98-10.82ZM260.93-17.79L260.93-17.79L260.93-17.79Q265.47-17.79 268.10-20.61L268.10-20.61L268.10-20.61Q270.72-23.30 270.72-27.58L270.72-27.58L270.72-27.58Q270.72-29.06 270.18-29.86L270.18-29.86L270.18-29.86Q269.63-30.66 268.54-30.66L268.54-30.66L268.54-30.66Q267.46-30.66 266.53-30.24L266.53-30.24L266.53-30.24Q265.60-29.82 264.64-28.42L264.64-28.42L264.64-28.42Q262.27-25.22 260.93-17.79ZM276.48 8.26L276.48 8.26L276.48 8.26Q281.41 2.94 281.41-3.71L281.41-3.71L281.41-3.71Q281.41-5.76 280.70-7.68L280.70-7.68L280.70-7.68Q281.47-8.19 283.01-8.54L283.01-8.54L283.01-8.54Q284.54-8.90 285.70-8.90L285.70-8.90L285.70-8.90Q288.51-8.90 290.18-7.39L290.18-7.39L290.18-7.39Q291.84-5.89 291.84-3.26L291.84-3.26L291.84-3.26Q291.84-0.64 290.82 1.47L290.82 1.47L290.82 1.47Q289.79 3.58 288.06 5.18L288.06 5.18L288.06 5.18Q284.35 8.64 279.23 8.64L279.23 8.64L279.23 8.64Q278.21 8.64 276.48 8.26ZM312.64-39.68L312.64-39.68L312.64-39.68Q313.54-41.47 315.49-42.46L315.49-42.46L315.49-42.46Q317.44-43.46 320.13-43.46L320.13-43.46L320.13-43.46Q324.35-43.46 326.88-40.42L326.88-40.42L326.88-40.42Q329.41-37.38 329.41-30.72L329.41-30.72L329.41-7.87L344.06-42.18L351.62-42.18L353.34-9.79L353.15-7.94L368.38-42.18L377.15-42.18L356.67 0L343.04 0L341.76-19.46L333.31 0L317.89 0L315.97-30.72L315.97-30.72Q315.78-34.18 314.85-36.45L314.85-36.45L314.85-36.45Q313.92-38.72 312.64-39.68ZM399.23-10.82L399.23-10.82L399.23-10.82Q400.83-9.73 400.83-7.33L400.83-7.33L400.83-7.33Q400.83-4.93 399.62-3.39L399.62-3.39L399.62-3.39Q398.40-1.86 396.42-0.83L396.42-0.83L396.42-0.83Q392.32 1.28 387.90 1.28L387.90 1.28L387.90 1.28Q383.49 1.28 380.90 0.32L380.90 0.32L380.90 0.32Q378.30-0.64 376.58-2.43L376.58-2.43L376.58-2.43Q373.18-5.82 373.18-12.03L373.18-12.03L373.18-12.03Q373.18-21.70 378.43-27.58L378.43-27.58L378.43-27.58Q384.06-33.92 393.86-33.92L393.86-33.92L393.86-33.92Q399.94-33.92 402.94-31.36L402.94-31.36L402.94-31.36Q405.18-29.44 405.18-26.30L405.18-26.30L405.18-26.30Q405.18-15.04 385.73-15.04L385.73-15.04L385.73-15.04Q385.47-13.38 385.47-11.97L385.47-11.97L385.47-11.97Q385.47-9.02 386.78-7.90L386.78-7.90L386.78-7.90Q388.10-6.78 390.53-6.78L390.53-6.78L390.53-6.78Q392.96-6.78 395.55-7.90L395.55-7.90L395.55-7.90Q398.14-9.02 399.23-10.82ZM386.18-17.79L386.18-17.79L386.18-17.79Q390.72-17.79 393.34-20.61L393.34-20.61L393.34-20.61Q395.97-23.30 395.97-27.58L395.97-27.58L395.97-27.58Q395.97-29.06 395.42-29.86L395.42-29.86L395.42-29.86Q394.88-30.66 393.79-30.66L393.79-30.66L393.79-30.66Q392.70-30.66 391.78-30.24L391.78-30.24L391.78-30.24Q390.85-29.82 389.89-28.42L389.89-28.42L389.89-28.42Q387.52-25.22 386.18-17.79ZM410.14-1.92L410.14-1.92L410.14-1.92Q408.64-3.58 407.97-6.21L407.97-6.21L407.97-6.21Q407.30-8.83 407.30-13.12L407.30-13.12L407.30-13.12Q407.30-17.41 408.77-21.31L408.77-21.31L408.77-21.31Q410.24-25.22 412.93-28.03L412.93-28.03L412.93-28.03Q418.43-33.92 427.52-33.92L427.52-33.92L427.52-33.92Q430.78-33.92 433.15-32.83L433.15-32.83L444.10-33.92L439.36-8.96L439.36-8.96Q439.17-8.19 439.17-6.78L439.17-6.78L439.17-6.78Q439.17-5.38 440.03-4.48L440.03-4.48L440.03-4.48Q440.90-3.58 442.18-3.46L442.18-3.46L442.18-3.46Q441.54-1.28 439.20 0L439.20 0L439.20 0Q436.86 1.28 434.24 1.28L434.24 1.28L434.24 1.28Q431.62 1.28 429.86 0.29L429.86 0.29L429.86 0.29Q428.10-0.70 427.58-2.37L427.58-2.37L427.58-2.37Q426.56-0.77 424.38 0.26L424.38 0.26L424.38 0.26Q422.21 1.28 419.30 1.28L419.30 1.28L419.30 1.28Q416.38 1.28 414.02 0.51L414.02 0.51L414.02 0.51Q411.65-0.26 410.14-1.92ZM423.65-27.90L423.65-27.90L423.65-27.90Q422.91-26.75 422.27-24.80L422.27-24.80L422.27-24.80Q421.63-22.85 420.58-17.63L420.58-17.63L420.58-17.63Q419.52-12.42 419.52-8.70L419.52-8.70L419.52-8.70Q419.52-4.99 420.10-3.90L420.10-3.90L420.10-3.90Q420.67-2.82 421.70-2.82L421.70-2.82L421.70-2.82Q423.74-2.82 425.25-4.77L425.25-4.77L425.25-4.77Q426.75-6.72 427.33-10.18L427.33-10.18L430.72-28.93L430.72-28.93Q429.38-30.08 427.81-30.08L427.81-30.08L427.81-30.08Q426.24-30.08 425.31-29.57L425.31-29.57L425.31-29.57Q424.38-29.06 423.65-27.90ZM467.58-17.98L467.58-17.98L467.58-17.98Q469.89-22.08 469.89-26.24L469.89-26.24L469.89-26.24Q469.89-28.99 467.90-28.99L467.90-28.99L467.90-28.99Q466.37-28.99 464.77-26.37L464.77-26.37L464.77-26.37Q463.10-23.74 462.59-20.35L462.59-20.35L459.26 0L446.02 1.28L452.54-32.64L463.10-33.92L461.95-27.46L461.95-27.46Q465.09-33.92 472.13-33.92L472.13-33.92L472.13-33.92Q475.84-33.92 477.86-32L477.86-32L477.86-32Q479.87-30.08 479.87-26.14L479.87-26.14L479.87-26.14Q479.87-22.21 477.28-19.71L477.28-19.71L477.28-19.71Q474.69-17.22 470.27-17.22L470.27-17.22L470.27-17.22Q468.35-17.22 467.58-17.98ZM501.25-7.23L501.25-7.23L501.25-7.23Q497.92-3.78 491.84-3.78L491.84-3.78L491.84-3.78Q484.22-3.78 482.62-9.34L482.62-9.34L482.62-9.34Q482.11-11.01 482.11-12.86L482.11-12.86L482.11-12.86Q482.11-14.72 482.50-16.64L482.50-16.64L485.50-32.64L498.50-33.92L494.98-15.30L494.98-15.30Q494.85-14.46 494.66-13.57L494.66-13.57L494.66-13.57Q494.46-12.67 494.46-11.74L494.46-11.74L494.46-11.74Q494.46-10.82 494.78-10.21L494.78-10.21L494.78-10.21Q495.10-9.60 495.55-9.22L495.55-9.22L495.55-9.22Q496.32-8.70 497.70-8.70L497.70-8.70L497.70-8.70Q499.07-8.70 500.26-10.37L500.26-10.37L500.26-10.37Q501.44-12.03 502.02-14.91L502.02-14.91L505.54-32.64L518.14-33.92L513.34-8.77L513.34-8.77Q510.98 3.52 506.11 8.38L506.11 8.38L506.11 8.38Q503.62 10.88 500.38 11.87L500.38 11.87L500.38 11.87Q497.15 12.86 492.99 12.86L492.99 12.86L492.99 12.86Q486.27 12.86 482.43 10.75L482.43 10.75L482.43 10.75Q478.59 8.64 478.59 5.12L478.59 5.12L478.59 5.12Q478.59 2.50 480.58 0.99L480.58 0.99L480.58 0.99Q482.56-0.51 485.63-0.51L485.63-0.51L485.63-0.51Q488.32-0.51 490.37 0.64L490.37 0.64L490.37 0.64Q491.58 1.34 492.16 2.24L492.16 2.24L492.16 2.24Q490.69 3.52 490.69 5.63L490.69 5.63L490.69 5.63Q490.69 8.45 493.25 8.45L493.25 8.45L493.25 8.45Q497.47 8.45 499.90-1.28L499.90-1.28L499.90-1.28Q500.61-4.16 501.25-7.23ZM535.23-39.68L535.23-39.68L535.23-39.68Q536.13-41.47 538.08-42.46L538.08-42.46L538.08-42.46Q540.03-43.46 542.72-43.46L542.72-43.46L542.72-43.46Q546.94-43.46 549.47-40.42L549.47-40.42L549.47-40.42Q552-37.38 552-30.72L552-30.72L552-7.87L566.66-42.18L574.21-42.18L575.94-9.79L575.74-7.94L590.98-42.18L599.74-42.18L579.26 0L565.63 0L564.35-19.46L555.90 0L540.48 0L538.56-30.72L538.56-30.72Q538.37-34.18 537.44-36.45L537.44-36.45L537.44-36.45Q536.51-38.72 535.23-39.68ZM598.69-1.92L598.69-1.92L598.69-1.92Q597.18-3.58 596.51-6.21L596.51-6.21L596.51-6.21Q595.84-8.83 595.84-13.12L595.84-13.12L595.84-13.12Q595.84-17.41 597.31-21.31L597.31-21.31L597.31-21.31Q598.78-25.22 601.47-28.03L601.47-28.03L601.47-28.03Q606.98-33.92 616.06-33.92L616.06-33.92L616.06-33.92Q619.33-33.92 621.70-32.83L621.70-32.83L632.64-33.92L627.90-8.96L627.90-8.96Q627.71-8.19 627.71-6.78L627.71-6.78L627.71-6.78Q627.71-5.38 628.58-4.48L628.58-4.48L628.58-4.48Q629.44-3.58 630.72-3.46L630.72-3.46L630.72-3.46Q630.08-1.28 627.74 0L627.74 0L627.74 0Q625.41 1.28 622.78 1.28L622.78 1.28L622.78 1.28Q620.16 1.28 618.40 0.29L618.40 0.29L618.40 0.29Q616.64-0.70 616.13-2.37L616.13-2.37L616.13-2.37Q615.10-0.77 612.93 0.26L612.93 0.26L612.93 0.26Q610.75 1.28 607.84 1.28L607.84 1.28L607.84 1.28Q604.93 1.28 602.56 0.51L602.56 0.51L602.56 0.51Q600.19-0.26 598.69-1.92ZM612.19-27.90L612.19-27.90L612.19-27.90Q611.46-26.75 610.82-24.80L610.82-24.80L610.82-24.80Q610.18-22.85 609.12-17.63L609.12-17.63L609.12-17.63Q608.06-12.42 608.06-8.70L608.06-8.70L608.06-8.70Q608.06-4.99 608.64-3.90L608.64-3.90L608.64-3.90Q609.22-2.82 610.24-2.82L610.24-2.82L610.24-2.82Q612.29-2.82 613.79-4.77L613.79-4.77L613.79-4.77Q615.30-6.72 615.87-10.18L615.87-10.18L619.26-28.93L619.26-28.93Q617.92-30.08 616.35-30.08L616.35-30.08L616.35-30.08Q614.78-30.08 613.86-29.57L613.86-29.57L613.86-29.57Q612.93-29.06 612.19-27.90ZM656.45-7.23L656.45-7.23L656.45-7.23Q653.12-3.78 647.04-3.78L647.04-3.78L647.04-3.78Q639.42-3.78 637.82-9.34L637.82-9.34L637.82-9.34Q637.31-11.01 637.31-12.86L637.31-12.86L637.31-12.86Q637.31-14.72 637.70-16.64L637.70-16.64L640.70-32.64L653.70-33.92L650.18-15.30L650.18-15.30Q650.05-14.46 649.86-13.57L649.86-13.57L649.86-13.57Q649.66-12.67 649.66-11.74L649.66-11.74L649.66-11.74Q649.66-10.82 649.98-10.21L649.98-10.21L649.98-10.21Q650.30-9.60 650.75-9.22L650.75-9.22L650.75-9.22Q651.52-8.70 652.90-8.70L652.90-8.70L652.90-8.70Q654.27-8.70 655.46-10.37L655.46-10.37L655.46-10.37Q656.64-12.03 657.22-14.91L657.22-14.91L660.74-32.64L673.34-33.92L668.54-8.77L668.54-8.77Q666.18 3.52 661.31 8.38L661.31 8.38L661.31 8.38Q658.82 10.88 655.58 11.87L655.58 11.87L655.58 11.87Q652.35 12.86 648.19 12.86L648.19 12.86L648.19 12.86Q641.47 12.86 637.63 10.75L637.63 10.75L637.63 10.75Q633.79 8.64 633.79 5.12L633.79 5.12L633.79 5.12Q633.79 2.50 635.78 0.99L635.78 0.99L635.78 0.99Q637.76-0.51 640.83-0.51L640.83-0.51L640.83-0.51Q643.52-0.51 645.57 0.64L645.57 0.64L645.57 0.64Q646.78 1.34 647.36 2.24L647.36 2.24L647.36 2.24Q645.89 3.52 645.89 5.63L645.89 5.63L645.89 5.63Q645.89 8.45 648.45 8.45L648.45 8.45L648.45 8.45Q652.67 8.45 655.10-1.28L655.10-1.28L655.10-1.28Q655.81-4.16 656.45-7.23ZM700.61-37.12L700.61-37.12L700.61-37.12Q701.50-38.66 701.50-40.32L701.50-40.32L701.50-40.32Q701.50-43.26 699.71-43.26L699.71-43.26L699.71-43.26Q696.96-43.26 695.81-37.63L695.81-37.63L694.85-32.64L700.67-32.64L700.29-29.76L694.27-29.76L688.51 0L675.58 1.28L681.73-29.76L677.18-29.76L677.76-32.64L682.24-32.64L683.58-37.70L683.58-37.70Q684.74-42.37 689.66-44.54L689.66-44.54L689.66-44.54Q693.25-46.08 699.26-46.08L699.26-46.08L699.26-46.08Q705.28-46.08 707.97-44.54L707.97-44.54L707.97-44.54Q710.66-43.01 710.66-40.96L710.66-40.96L710.66-40.96Q710.66-38.91 709.06-37.63L709.06-37.63L709.06-37.63Q707.46-36.35 705.66-36.35L705.66-36.35L705.66-36.35Q702.14-36.35 700.61-37.12ZM702.37-1.92L702.37-1.92L702.37-1.92Q700.86-3.58 700.19-6.21L700.19-6.21L700.19-6.21Q699.52-8.83 699.52-13.12L699.52-13.12L699.52-13.12Q699.52-17.41 700.99-21.31L700.99-21.31L700.99-21.31Q702.46-25.22 705.15-28.03L705.15-28.03L705.15-28.03Q710.66-33.92 719.74-33.92L719.74-33.92L719.74-33.92Q723.01-33.92 725.38-32.83L725.38-32.83L736.32-33.92L731.58-8.96L731.58-8.96Q731.39-8.19 731.39-6.78L731.39-6.78L731.39-6.78Q731.39-5.38 732.26-4.48L732.26-4.48L732.26-4.48Q733.12-3.58 734.40-3.46L734.40-3.46L734.40-3.46Q733.76-1.28 731.42 0L731.42 0L731.42 0Q729.09 1.28 726.46 1.28L726.46 1.28L726.46 1.28Q723.84 1.28 722.08 0.29L722.08 0.29L722.08 0.29Q720.32-0.70 719.81-2.37L719.81-2.37L719.81-2.37Q718.78-0.77 716.61 0.26L716.61 0.26L716.61 0.26Q714.43 1.28 711.52 1.28L711.52 1.28L711.52 1.28Q708.61 1.28 706.24 0.51L706.24 0.51L706.24 0.51Q703.87-0.26 702.37-1.92ZM715.87-27.90L715.87-27.90L715.87-27.90Q715.14-26.75 714.50-24.80L714.50-24.80L714.50-24.80Q713.86-22.85 712.80-17.63L712.80-17.63L712.80-17.63Q711.74-12.42 711.74-8.70L711.74-8.70L711.74-8.70Q711.74-4.99 712.32-3.90L712.32-3.90L712.32-3.90Q712.90-2.82 713.92-2.82L713.92-2.82L713.92-2.82Q715.97-2.82 717.47-4.77L717.47-4.77L717.47-4.77Q718.98-6.72 719.55-10.18L719.55-10.18L722.94-28.93L722.94-28.93Q721.60-30.08 720.03-30.08L720.03-30.08L720.03-30.08Q718.46-30.08 717.54-29.57L717.54-29.57L717.54-29.57Q716.61-29.06 715.87-27.90ZM759.81-17.98L759.81-17.98L759.81-17.98Q762.11-22.08 762.11-26.24L762.11-26.24L762.11-26.24Q762.11-28.99 760.13-28.99L760.13-28.99L760.13-28.99Q758.59-28.99 756.99-26.37L756.99-26.37L756.99-26.37Q755.33-23.74 754.82-20.35L754.82-20.35L751.49 0L738.24 1.28L744.77-32.64L755.33-33.92L754.18-27.46L754.18-27.46Q757.31-33.92 764.35-33.92L764.35-33.92L764.35-33.92Q768.06-33.92 770.08-32L770.08-32L770.08-32Q772.10-30.08 772.10-26.14L772.10-26.14L772.10-26.14Q772.10-22.21 769.50-19.71L769.50-19.71L769.50-19.71Q766.91-17.22 762.50-17.22L762.50-17.22L762.50-17.22Q760.58-17.22 759.81-17.98ZM799.04-10.82L799.04-10.82L799.04-10.82Q800.64-9.73 800.64-7.33L800.64-7.33L800.64-7.33Q800.64-4.93 799.42-3.39L799.42-3.39L799.42-3.39Q798.21-1.86 796.22-0.83L796.22-0.83L796.22-0.83Q792.13 1.28 787.71 1.28L787.71 1.28L787.71 1.28Q783.30 1.28 780.70 0.32L780.70 0.32L780.70 0.32Q778.11-0.64 776.38-2.43L776.38-2.43L776.38-2.43Q772.99-5.82 772.99-12.03L772.99-12.03L772.99-12.03Q772.99-21.70 778.24-27.58L778.24-27.58L778.24-27.58Q783.87-33.92 793.66-33.92L793.66-33.92L793.66-33.92Q799.74-33.92 802.75-31.36L802.75-31.36L802.75-31.36Q804.99-29.44 804.99-26.30L804.99-26.30L804.99-26.30Q804.99-15.04 785.54-15.04L785.54-15.04L785.54-15.04Q785.28-13.38 785.28-11.97L785.28-11.97L785.28-11.97Q785.28-9.02 786.59-7.90L786.59-7.90L786.59-7.90Q787.90-6.78 790.34-6.78L790.34-6.78L790.34-6.78Q792.77-6.78 795.36-7.90L795.36-7.90L795.36-7.90Q797.95-9.02 799.04-10.82ZM785.98-17.79L785.98-17.79L785.98-17.79Q790.53-17.79 793.15-20.61L793.15-20.61L793.15-20.61Q795.78-23.30 795.78-27.58L795.78-27.58L795.78-27.58Q795.78-29.06 795.23-29.86L795.23-29.86L795.23-29.86Q794.69-30.66 793.60-30.66L793.60-30.66L793.60-30.66Q792.51-30.66 791.58-30.24L791.58-30.24L791.58-30.24Q790.66-29.82 789.70-28.42L789.70-28.42L789.70-28.42Q787.33-25.22 785.98-17.79ZM827.20-17.98L827.20-17.98L827.20-17.98Q829.50-22.08 829.50-26.24L829.50-26.24L829.50-26.24Q829.50-28.99 827.52-28.99L827.52-28.99L827.52-28.99Q825.98-28.99 824.38-26.37L824.38-26.37L824.38-26.37Q822.72-23.74 822.21-20.35L822.21-20.35L818.88 0L805.63 1.28L812.16-32.64L822.72-33.92L821.57-27.46L821.57-27.46Q824.70-33.92 831.74-33.92L831.74-33.92L831.74-33.92Q835.46-33.92 837.47-32L837.47-32L837.47-32Q839.49-30.08 839.49-26.14L839.49-26.14L839.49-26.14Q839.49-22.21 836.90-19.71L836.90-19.71L836.90-19.71Q834.30-17.22 829.89-17.22L829.89-17.22L829.89-17.22Q827.97-17.22 827.20-17.98ZM834.56-3.78L834.56-3.78L834.56-3.78Q834.56-6.21 836.45-7.55L836.45-7.55L836.45-7.55Q838.34-8.90 841.02-8.90L841.02-8.90L841.02-8.90Q843.71-8.90 845.34-7.55L845.34-7.55L845.34-7.55Q846.98-6.21 846.98-3.78L846.98-3.78L846.98-3.78Q846.98-1.34 845.15-0.03L845.15-0.03L845.15-0.03Q843.33 1.28 840.64 1.28L840.64 1.28L840.64 1.28Q837.95 1.28 836.26-0.03L836.26-0.03L836.26-0.03Q834.56-1.34 834.56-3.78Z" fill="url(#editing-shiny-gradient2)"></path></g></g><style>text {
  font-size: 64px;
  font-family: Arial Black;
  dominant-baseline: central;
  text-anchor: middle;
}</style></svg>